<?xml version="1.0" encoding="utf-8"?>
<!-- Generator: Adobe Illustrator 21.1.0, SVG Export Plug-In . SVG Version: 6.00 Build 0)  -->
<svg version="1.1" id="Capa_1" xmlns="http://www.w3.org/2000/svg" xmlns:xlink="http://www.w3.org/1999/xlink" x="0px" y="0px"
	 viewBox="0 0 160 373" style="enable-background:new 0 0 160 373;" xml:space="preserve">
<style type="text/css">
	.st0{fill:#FFFFFF;}
</style>
<path class="st0" d="M26.4,300c-0.1,0-0.2-0.1-0.3-0.1c1.4-4.1,2.6-8.3,4.2-12.3c1.5-4,3.3-7.9,4.9-11.8c0.3,0.1,0.6,0.2,0.8,0.4
	C32.7,284.1,29.6,292.1,26.4,300z M31.4,278.3c-0.3-0.2-0.7-0.4-1-0.7c1.9-2.8,3.8-5.5,5.7-8.3c0.3,0.2,0.5,0.4,0.8,0.5
	C35.1,272.7,33.2,275.5,31.4,278.3z M29.1,274.2c-0.5,1.9-1.1,3.7-1.7,5.6c-0.3-0.1-0.7-0.2-1-0.3c1.4-4,2.7-7.9,4.1-11.9
	C30,269.7,29.6,272,29.1,274.2z M44.1,253.7c-3.4,6.8-8.7,12.4-13.7,18.2c1.3-2.3,2.4-4.7,4.1-6.7c2.5-3.1,4.5-6.4,6-10
	c0.3-0.8-0.1-1.9-0.3-2.9C41.6,252.9,42.9,253.3,44.1,253.7z M40,252.3c-2.8,0.9-1.7,3.7-2.5,5.5c-0.8,0.2-1.6,0.4-2,0.5
	c-1,3.5-2.5,6.4-4.9,8.8c2.3-5.2,4.7-10.4,7.2-16C38.9,251.7,39.5,252,40,252.3z M35.4,242.9c0.8,0.9,1.3,1.4,1.5,1.7
	c-1.4,2.7-2.7,5.2-4.2,8.1c-0.8-0.7-1.4-1.2-2-1.8C32.3,248.3,33.8,245.7,35.4,242.9z M32,237.6c0.7,0.9,1.2,1.4,1.6,1.9
	c-1.7,2.6-3.3,5.1-5.1,7.8c-0.6-0.5-1.2-1-1.9-1.5C28.5,242.9,30.1,240.5,32,237.6z M23.5,239.4c2.1-3.4,4.3-6.7,6.5-10
	c0.4,0.2,0.8,0.4,1.2,0.5c-0.6,1.6-1,3.3-1.7,4.9c-1,2-2.2,3.9-3.4,5.7c-0.3,0.5-1.2,0.6-1.8,0.9C23.9,240.6,23.2,239.7,23.5,239.4z
	 M28.3,279.2c0.3,0.1,0.7,0.3,1,0.4c-2.5,5.6-5.1,11.2-7.6,16.8c-0.2-0.2-0.5-0.3-0.7-0.5C23.3,290.4,25.8,284.8,28.3,279.2z
	 M100.7,162.9c-1.7,1.8-3.4,3.5-5.1,5.3c-1,1-2,2.1-3,3.2c-1.2-2.6,0.9-2.7,2.8-3.3c-2.4-0.4-4.2-0.7-6-1.1c0.3-0.6,0.6-1.3,0.8-1.6
	c1.5,0.4,2.7,0.7,4.1,1.1c0.1-1.5,0.2-2.4,0.3-3.4c1.2-0.4,2.3-0.9,3.5-1.3c-5-0.9-9.6,0.2-14.1,2.1c-0.1-0.5-0.1-0.9-0.2-1.4
	c6.5-1.5,13-2.9,19.7-4.4C105.1,161.3,101.9,161.6,100.7,162.9z M81.4,105.7c1.1-0.7,2.8-0.6,4.2-1c0.8-0.2,1.6-0.7,2.3-1.2
	c2.1-1.6,4.2-2.5,6.9-2.2c3.3,0.4,6.7,0.1,9.6,2.4c1.8,1.4,4.3,2.1,6.6,3.2c0.1-0.5,0.3-1.2,0.6-2.6c0.8,1.1,2,1.9,1.9,2.5
	c-0.6,2.8,0.5,4.5,3.2,5.9c-3.2-1.6-4.8,1.7-7.5,2.3c1.3-3.5-1.5-4.6-2.8-6.8c-0.8,0.5-1.5,0.9-2.3,1.4c0.3-1.2,0.7-2.2,1-3.3
	c-0.2,0-0.5-0.1-0.7-0.1c-1,1.3-1.7,3-3,3.7c-1.2,0.6-3,0.1-4.6,0.2c-1.2,0.1-2.4,0.4-3.7,0.2c0.6-0.2,1.2-0.4,1.3-0.4
	c-0.5-1.7-1.1-3.3-1.7-5.1c-1.7,1.5-3.6,2.7-1.8,5.9c-2,0.3-3.8,0.5-6,0.8c0.4-1,0.6-1.6,0.9-2c0.3-0.5,0.6-0.9,0.6-1.7
	c-1.2,1.1-2.4,2.1-3.8,3.3c1.8,2.1,0.4,3.4-1.4,5c-0.2-1.6-0.3-2.8-0.4-3.9c0.3,0,0.5,0,0.8,0C81,109.9,78.3,107.7,81.4,105.7z
	 M76.6,109.8c0.7,0.6,1.5,1,1.6,1.4c0.2,1.9,2.5,3.2,1.1,5.7c-0.5,0.9,1.4,3.2,2.2,4.7C78.2,119.6,76.3,115.5,76.6,109.8z
	 M90.5,143.3c-2.9,1.1-5.3,1.9-7.5,2.9c-1,0.4-1.7,1.5-2.6,2c-1.8,1.1-3.8,2-5.7,3.1c-0.1-0.3-0.2-0.6-0.4-0.8
	C79,146.9,82.9,141.9,90.5,143.3z M48.9,160.1c1.2-2,3.2-0.7,4.7-0.4c4.5,1,9,1.6,13.6,1c0.3,0,0.8,0.6,1.1,0.6
	c0.3,0,0.6-0.5,1.3-1.1c1.5,4.6,5.4,4.8,9.3,5.1c-6.4,2-12.3-2.7-19.4-2c1.9,2.2,3.1,4.4,4.9,5.3c1.6,0.8,3.9,0.5,6,0.4
	c4.5-0.2,9-0.5,14.1-0.8c-5.5,3.3-10.9,0.9-16.3,1.5c0.1,2.7,0.2,5.3,0.3,7.5c-1.6-0.5-3.2-1-4.9-1.5c-0.4-0.1-0.9-0.1-1.1-0.3
	c-1.5-2-4.1-3.6-4.9-5.3c-1.5-3.4-5.1-3.9-6.7-6.7c0-0.1,0-0.2-0.1-0.3C49.9,162.4,47.8,162,48.9,160.1z M108.5,243.8
	c-2.3,2.4-5.2,4.4-6.9,7.2c-8,12.4-15.7,25.1-23.5,37.6c-0.1,0.2-0.4,0.4-0.5,0.7c-0.2-0.1-0.4-0.2-0.7-0.4c2.4-4.4,4.6-8.8,7.1-13
	c4.9-8,9.7-16.2,15.3-23.8c3.5-4.8,8.1-8.7,12.3-12.9c0.5-0.5,1-0.8,1.5-1.2c0.2,0.2,0.4,0.4,0.7,0.6
	C112,240.3,110.3,242.1,108.5,243.8z M118.5,230.3c-7.7,5.8-15.3,11.7-22.9,17.7c-3.1,2.4-6,5.1-9,7.6c-0.2-0.1-0.4-0.1-0.6-0.2
	c0.6-1.3,1-2.9,2-3.7c3.7-3.2,7.6-6.2,11.4-9.3c4.7-3.9,9.4-7.9,14.2-11.6c3.2-2.5,6.6-4.8,10.3-7.5
	C122.8,226.6,121,228.5,118.5,230.3z M124.4,218c-7.2,4.5-13.5,10.1-19.6,16.1c-3.4,3.3-7.7,5.7-11.6,8.6c-1.6,1.2-3.2,2.6-4.7,3.9
	c1.2-1.9,2.3-3.9,3.9-5.5c1.5-1.5,3.6-2.4,5.3-3.8c4-3.3,7.9-6.7,11.8-10c6.1-5.1,12.2-10.1,18.4-15.1c0.3,0.3,0.6,0.6,0.9,0.9
	C127.3,214.7,126.2,216.9,124.4,218z M128.1,207.9c-8.3,6.5-16.6,13-24.6,19.7c-3.2,2.7-5.6,6.1-8.4,9.2c-0.4-0.3-0.8-0.7-1.2-1
	c0.5-0.8,0.8-1.7,1.4-2.3c9.2-8.1,18.5-16.2,27.8-24.3c4.1-3.5,8.2-6.9,12.4-10.4C134.1,202.8,131.3,205.4,128.1,207.9z
	 M139.5,182.9c-1.5,6.2-4.1,11.6-9.8,15.3c-2.6,1.7-4.4,4.7-6.8,6.9c-6.2,6-12.5,11.9-19.3,17.3c0.7-0.8,1.4-1.7,2.2-2.5
	c6.9-7.1,13.8-14.3,20.8-21.4c1.7-1.7,3.3-3.6,5.1-5.1c4.8-3.9,5.5-9.1,7.6-14.3C139.4,180.4,139.8,181.7,139.5,182.9z"/>
<path class="st0" d="M110.4,205.2c-4.9,5-9.8,10-14.7,15c-0.3-2.5-1.1-3.5-3.6-3c1.3-1.1,2.3-2,3.2-2.8c-1.5-0.8-1.5-0.8-6.9,2.4
	c1.6-1.9,2.8-3.3,4.1-4.8c-4.6,0-8.8,0.1-12.9-0.1c-2.1-0.1-4.5-0.4-6.3-1.4c-2.6-1.7-4.9-2.2-7.9-1.1c-1.9,0.7-4.1,0.6-6.7,1
	c0.8,1.3,1.2,2,1.8,3c-1.4-0.5-2.4-0.8-3-1c0.7,1.9,1.3,3.7,2.2,6.1c-0.9-0.6-1.3-0.9-1.6-1c0.1,2.4,0,4.8,0.5,7
	c0.4,1.6,1.6,3,2.2,3.9c-0.4,1.1-0.7,1.9-0.9,2.7c-0.9,3.4-0.9,7-4.2,9.6c-1.5,1.2-2.2,3.5-2.9,5.4c-0.3,0.7,0.5,2,1,2.8
	c1.1,1.6,2.6,3.1,3.7,4.7c2,3,3.9,6.1,5.8,9.1c0.2,0.3,0.1,1-0.1,1.3c-1.2,1.4-2.5,2.7-3.9,4.2c-0.5-0.6-0.8-1.1-1.2-1.6
	c-0.1,0.1-0.2,0.1-0.3,0.2l0.6,2.4c3.6-1.9,7.1-3.8,10.7-5.7c0.1,0.2,0.2,0.4,0.4,0.6c-4.7,2.9-9.4,5.7-14.1,8.6
	c-0.1-0.1-0.2-0.2-0.3-0.4c0.9-0.9,1.8-1.7,2.7-2.6c-0.8-2.5-1.5-5-2.3-7.5c-0.5-0.3-1.1-0.5-1.6-0.8c0,0.1,0.1,0.2,0.1,0.4
	c-0.8-1.1-1.6-2.3-2.4-3.4c0.6,10.3-7.7,16.5-10.5,25.1c-0.2-6.5,3.2-11.4,6.8-16.3c2-2.7,3.6-5.6,1.5-9c-6.7,8.1-11.8,17-13.6,27.5
	c-0.4,2.1-1.9,4-3,6c2.9-2.6,5.6-5.1,8.3-7.7c0.2,0.3,0.5,0.5,0.7,0.8c-0.7,0.6-1.5,1.1-2.2,1.7c-1.4,1.4-3.1,2.6-4.1,4.2
	c-4.3,7.3-7.2,15.3-9.6,23.3c0.9,0.8,1.5,2,1.5,3.5c0,1.6,0.1,3.2,0.1,4.9c0.6-1.6,1.2-3.2,1.7-4.8c2.3-6.8,4.4-13.6,6.7-20.4
	c1.1-3.3,2.6-6.4,3.9-9.6c0.4,0.1,0.8,0.3,1.2,0.4c-3.2,10-6.4,20-9.6,30c-1.2,3.7-2.3,7.4-3.5,11.1c0.1,2.2,0.3,4.5,0.4,6.7
	c0.4,0.1,0.8,0.1,1.2,0.3c0.3-1,0.7-2,1-2.9c3-8.5,6-17,8.9-25.6c1.6-4.6,2.8-9.3,4.2-14c0.2,0,0.5,0,0.7,0c0,1,0.3,2.2,0,3.1
	c-1.2,3.7-2.6,7.3-3.8,10.9c-3.2,9.8-6.4,19.6-9.5,29.4c0.9,0.8,1.5,2,1.4,3.6c0,1-0.1,1.8-0.2,2.7c2.2-7.5,4.5-15.1,6.8-22.6
	c2.4-7.7,5-15.4,8-22.9c2.3-5.8,5.4-11.4,8.1-17c0.5-1,1.3-2,1.5-3c0.4-2,1.4-1.9,3.2-1.5c-1.2,2-2.6,3.7-3.5,5.7
	c-3.2,7.1-6.4,14.2-9.2,21.4c-2.9,7.5-5.4,15.2-8,22.9c-1.2,3.6-2.1,7.4-3.3,11.1c-2,6.1-4.3,12.1-6.1,18.2c0.7,1.7,1.2,3.6,1.6,5.4
	c0.7-2.4,1.6-4.7,2.3-7.1c0.8-2.5,1.4-5.1,2.2-7.5c3.3-10.4,6.5-20.7,10-31c1.6-4.6,3.7-9,5.6-13.5c1.7-4.3,3.2-8.8,5.1-13
	c1.4-3.2,3.4-6.2,5.2-9.3c0.5-0.9,1.2-1.7,1.5-2.7c1.8-4.5,4.5-8.1,8.6-10.7V256c0.2,0,0.4,0,0.5,0v10.3c0.2,0.2,0.4,0.5,0.7,0.7
	c1.5-3.4,3.3-6.7,1.5-10.7c-0.3-0.5,0.3-1.4,0.5-2.2c0.3,0,0.5,0.1,0.8,0.1c0.3,1.8,0.7,3.6,1.1,5.7c1.5-2.2,3-4,1.8-6.9
	c-0.8-1.8-0.7-3.7,1.1-5.3c1.5-1.3,2.4-2.6,1.8-5c-0.3-1.2,1.3-2.9,2-4.4c-0.2-0.2-0.4-0.3-0.5-0.5c-1.3,1-2.5,2-3.8,3
	c-0.2-0.2-0.4-0.4-0.6-0.6c2-2.1,4-4.3,6.3-6.6c0.9,0.4,2.1,0.9,3.1,1.3c7.5-9.8,15.1-19.6,22.7-29.4
	C110.6,205.3,110.5,205.3,110.4,205.2z M49.1,277.2c3.3-4.5,4.1-9.8,5.1-15.1C55.8,267.7,53.9,273.8,49.1,277.2z M79.8,243.6
	c0.2,0.2,0.4,0.3,0.6,0.5c-1.7,2.4-3.4,4.8-5.1,7.1l-0.7-0.4C76.5,248.3,78.2,245.9,79.8,243.6z M85.2,231.2
	c-0.2-0.2-0.5-0.3-0.7-0.5c3-3.4,6.1-6.9,9.1-10.3c0.2,0.2,0.4,0.4,0.6,0.5C91.3,224.3,88.3,227.8,85.2,231.2z"/>
<path class="st0" d="M29.3,354.5c0.2-1,0.4-2.1,0.7-3.1c0.3-1.1,0.6-2.1,0.9-3.2v0.1c-0.5,1.1-1.2,1.8-2.1,2.1c0,1,0,1.9-0.1,2.9
	C28.9,353.7,29.1,354.1,29.3,354.5z"/>
<path d="M72.3,266.3c-0.2,0-0.4,0-0.5,0c-4,2.6-6.8,6.2-8.6,10.7c-0.4,1-1,1.8-1.5,2.7c-1.7,3.1-3.7,6.1-5.2,9.3
	c-1.9,4.2-3.3,8.7-5.1,13c-1.8,4.5-4,8.9-5.6,13.5c-3.5,10.3-6.7,20.7-10,31c-0.8,2.5-1.4,5-2.2,7.5c-0.7,2.4-1.6,4.7-2.3,7.1
	c0.2,0.9,0.3,1.8,0.5,2.7c0.5-1.3,1.1-2.6,1.8-3.9c0.5-1.7,1.1-3.5,1.7-5.2c2.3-6.4,3.7-13.1,5.9-19.5c2.9-8.5,6-17,9.2-25.4
	c3.3-8.6,6.7-17.2,10.5-25.6c1.9-4.1,4.9-7.7,7.4-11.5c1.5-1.9,3.1-3.8,4.6-5.8C72.8,266.8,72.6,266.5,72.3,266.3z"/>
<path d="M149.9,93.9c-0.1-3.2-0.4-6.4-0.8-9.7c-0.1-1.3-0.5-3.5-0.8-4.8c-1.3-5.9-2.6-11.7-4-17.6c-1.1-4.5-2.4-9-3.8-13.5
	c-1.3-4-2.4-8.1-4.3-11.9c-3.6-7.2-9.5-12.6-15.4-17.8c-3-2.6-6.1-5.3-9.6-7.2c-2.3-1.3-5.3-1.3-8.1-1.7c-4-0.6-8.1-1-12.2-1.5
	C89.5,8,88.2,8,86.8,8c-3.4,0-6.9,0.1-10.3,0.5c-4.5,0.4-9,1-13.5,1.8c-3.8,0.7-7.7,1.2-11.1,2.8c-4.6,2-8.9,4.7-13.2,7.4
	c-3.5,2.2-6.8,4.8-10.3,7.3c0.1,0.1,0.2,0.3,0.3,0.4c1.1-0.2,2.1-0.4,3.2-0.6c-0.7,0.8-1.4,1.5-1.6,1.7c-1.2,0.3-1.9,0.5-2.6,0.7
	c0.4,0.9,0.7,1.8,1.1,2.7c-0.1,0.1-0.3,0.2-0.4,0.3c-0.4-0.3-0.8-0.7-1.2-1c1.9,3.5-2.1,1.3-2.4,2.9c1.9,4.3-3.5,2.6-4.2,4.2
	c0.8,0.8,1.3,1.3,1.8,1.8c-3.6-0.8-2.8,3-4.5,3.5c0.4,1,0.8,1.7,1.1,2.5c-1.4,2.9-2.7,5.8-4.1,8.8l-0.2,2c-1.1,0.3-1.8,1-2,1.8
	s0.2,1.7,0.4,3C10.7,64,9,68.3,9.4,72.2c0.1,1.3-0.6,2.7-0.9,4.1c-0.3,1.3-0.5,2.6-0.8,4.3c1-0.5,1.4-0.7,2.1-1.1
	c-1.8,3.9-0.6,10.1,1.9,12c-0.8,0.9-1.7,1.8-2.2,2.4c0.5,1.4,0.9,2.4,1.4,3.8c0.8-0.7,1.4-1.2,2-1.8c0.2,0.1,0.4,0.3,0.5,0.4
	c-0.8,1.5-1.6,3-2.5,4.5c0.3,0.2,0.9,0.9,1.6,1.1c0.7,0.2,1.5,0.1,2.2-0.2c0.4-0.2,0.7-0.9,0.8-1.4c0.3-1.3,0.6-2.6,0.9-4
	c0.3,0.1,0.6,0.2,0.9,0.3c-0.3,0.9-0.7,1.9-1,2.7c2.9,1.8-1.2,2.1-0.9,3c0.7,0.5,1.3,0.8,1.8,1.2c-0.5,0.6-0.9,1.3-1.5,2
	c-0.4-0.8-0.6-1.3-1-2c-0.9,1.5-1.6,2.7-2.3,3.8c0.8,0.5,1.9,0.7,2.2,1.3c1.9,3.5,3.9,7.1,3.2,11.3c-0.5,2.5,0.1,4.1,2.3,5.3
	c0.7-0.6,1.3-1.1,2-1.7c0.6,0.9,1.1,1.7,2,3c-1-4.1-1.9-7.5-2.8-11c0.3-0.1,0.5-0.1,0.8-0.2c0.4,1.5,0.8,2.9,1.3,4.4
	c0.1-0.1,0.3-0.1,0.4-0.2c-0.2-2.5-0.4-4.9-0.6-7.4c0.5-0.1,0.4-0.1,0.8-0.2c1.7,3.6,3.5,7.1,5.3,10.9h3.3c0.3,0.5,0.4,1.1,0.6,1.5
	c0.1,0,0.1,0,0.1,0c0.1,0,0.2-0.2,0.4-0.4c-0.4-0.4-0.8-0.7-1.1-1c1.7-1.1,12.9-0.3,14.5-1.4c-0.1-0.2-0.3-0.3-0.4-0.5
	c-0.9,0-11.5-1.9-12.7-1.9c2.6-5.3,17.2-0.9,20.7-2.1c0.3,3.9-2.1,6-5.2,8c3.6-0.6,7.2-1.1,11.1-1.7c-0.9,4.4-3.3,6.6-6.6,7.5
	c-4.5,1.1-9.1,1.9-13.6,2.3c-2.5,0.3-5.1-0.3-7.7-0.5c0,0.3,0,0.6,0,0.9c7.5,1.8,15-0.8,22.9-1.7c-2.6,2.8-4.6,5-6.5,7.3
	c-1,1.2-2.2,2.6-2.3,3.9c0,1.4-3,1.5-1.2,3.3c-1.8,1.3-3.5,2.6-5.1,3.7c0.1,0.3,0.1,0.5,0.2,0.8c0.4,0.3,0.9,0.6,1.1,1.1
	c0.9,2.2,1.8,1.9,3.3,0.5c1.6-1.5,3.5-2.8,5.8-4.7c0.4,2,0.6,3.2,0.8,4.4c1.5-3,2.6-3.7,3.6-4c1.9-0.6,3.8-1.5,5.7,0.8
	c-0.1-0.9-0.1-1.4-0.2-2c5.3,3.6,6.5,3.9,7.5,2.5c-1.5-0.8-3.1-1.6-4.5-2.6c-0.7-0.4-1-1.6-1.6-1.8c-1.9-0.7-3.9-1-5.9-1.6
	c-2.5-0.8-3.8-2.8-2.3-5.2c1.4-2.3,3.9-3.9,5.8-5.8c-2.3-1.4-0.9-2.9,0.7-4.4c0.4-0.4,0.9-0.8,1.2-1.2c1.7-2.6,3.3-5.3,5-8
	c-0.2-0.1-0.5-0.3-0.7-0.4c-0.4,0.4-0.8,0.7-1.2,1.1c1.4-3.6,2.7-7.1,1.9-11.1c-0.1-0.6,1.4-2.2,2.3-2.4c1.7-0.3,3.6-0.1,5.4,0.1
	c1.9,0.3,3.3-0.7,3.4-2.1c0.1-2.3,1.1-3.4,3-4c5-1.4,9.9-3.2,15-3.9c6.2-0.9,12.5-1.1,18.7-1.2c1.7,0,3.4,1.3,5.1,2
	c-0.1,0.1-0.2,0.3-0.2,0.4c-3.6-0.4-7.1-0.8-10.7-1.2c-0.2,0.4-0.1,0.4-0.3,0.8c3.9,3,7.9,6,11.9,9c0.4-0.4,1-1.2,1.6-1.9
	c0,0.2,0,0.4,0,0.6c1.6-0.5,3.2-1,4.7-1.5c0.2,0.5,0.5,1.6,1,3.1c0,0-0.8,0.6-0.7,1.2c0.2,2.5,0.7,4.9,0.9,7.4
	c0.3,4.3,0.3,8.6,0.8,12.9c0.3,2.8,1.2,5.6,1.7,8.4c0.2,1.2,0.5,2.4,0.7,3.6c0.1,0.6,0.1,1.1,0.1,1.7c0.7,0.8,1.2,1.9,1.2,3.2
	c0,0.8,0,1.6,0.2,2.3c0,0.2,0.1,0.5,0.1,0.7c0.2,1.1,0.4,2.1,0.5,3.2c0.1,0.5-0.2,1.1-0.3,1.6c-0.1,0.2-0.1,0.4-0.2,0.6
	c0,1.7-0.1,3.3-0.2,5c-0.1,1.3-0.6,2.4-1.4,3.3c0,0.2-0.1,0.3-0.1,0.5c-0.2,1.2-1.3,2.9-0.8,3.5c1.3,1.9,0.2,3.4,0,5
	c-0.1,0.8-0.2,1.7-0.2,2.5c0,1.2,0,2.4,0,3.6c-2.5-0.8-2.1,1.6-2.3,2.5c-1,4.4-1.9,8.9-5.6,12c-1.4,1.2-3,2.4-4.5,3.5
	c-0.8,0.6-1.6,1.1-2.5,1.6c-0.5,0.2-1.5,0-1.6,0.2c-1.3,2.7-4.2,3.2-6.5,4.5c-0.7,0.4-1.8-0.2-2.8-0.3c-0.6,0-1.5-0.2-1.9,0.1
	c-5.1,4.6-11.3,6-18,6.1c-3.9,0-7.7,0.1-11.6-0.3c-1.7-0.2-3.3-1.1-4.9-1.9c-2.6-1.3-5.2-2.7-7.7-4.3c-1.1-0.7-2.1-1.6-2.9-2.7
	c-2.4-3.6-4.7-7.3-7-10.9c-1.2-1.9-2.3-3.8-3.4-5.8c-0.3-0.5-0.5-0.9-0.8-1.4c-0.8-0.8-1.6-1.7-2.2-2.6c0,0-0.1,0-0.1,0.1
	c0.1,0.6,0.2,1.2,0.3,1.9c-0.2,0.1-0.3,0.1-0.5,0.2c-1.6-2.2-3.2-4.5-5-6.9c-0.2,0.9-0.3,1.4-0.4,2.2c-1-2.7-1.9-5.2-2.8-7.5
	c-0.2,0.2-0.6,0.7-1.4,1.6c-0.3-1.8-1-3.3-0.7-4.5c1-3.1,1.2-3.1-1.1-4.8c0.1-0.2,0.2-0.3,0.3-0.5c-0.9-1-1.3-2.4-1.2-3.8
	c-0.2-0.5-0.5-1.1-0.7-1.6c-0.4-0.6-0.6-1.4-0.7-2.1c-0.2-0.9-0.4-1.8-0.5-2.7c0-0.1,0-0.1-0.1-0.2c-0.3-0.7-0.7-1.4-1.2-2.3
	c-0.2,1-0.4,1.6-0.6,2.6v-5.9c-0.5,0-0.9,0-1.4,0c0,3.2-0.4,6.5,0.1,9.7c1.6,10.3,6.4,19.1,13.4,26.7c3.9,4.3,6.7,9.1,8.5,14.5
	c0.2,0.4,0.4,0.8,0.7,1.3c1.3,3.1,0.4,5.1-3.5,6.8V199c-1,1.4-1.2,3.5-2.3,4.3c-7.2,5.5-12.2,12.7-16.9,20.2c-0.7,1.1-1.7,2-2.2,3.1
	c-0.9,1.8-1.5,3.8-2.2,5.7c-0.3,0.9-0.7,1.7-1,2.6c0.4,0.2,0.7,0.4,1.1,0.5c0.6-0.7,1.2-1.4,1.8-2.2c1.2-1.6,2.2-3.4,3.7-4.8
	c0.7-0.7,2.2-0.7,3.8-1.1c-3.8-0.8-4.1-1.2-2.2-3.9c1.8-2.6,3.6-5.3,5.5-7.7c2.4-3,5.1-5.9,7.6-8.8c-2.5,4.6-5.4,8.9-7.8,13.4
	c-3.1,5.8-3.8,11.9-1.9,14.4c0.4-6.3,2-12.1,6.1-16.9c2.2,1.5,2.5,2.8,1.1,5.1c-1.9,3.1-3,6.6-4.5,9.9c0.4,0.2,0.8,0.4,1.1,0.6
	c3.2-5.7,6.3-11.3,9.4-16.8c1.4,3.7,1,7.4-2,10.5c-4.5,4.7-3.2,10.6-3.8,16.1c1.2-2.9,1.6-5.9,2.6-8.8c1.1-3,2.7-5.7,4.1-8.6
	c0.7,0.1,0.7,0.1,1.4,0.3c0.6,4.5-3.1,7.9-3.7,12.1c2.8,0,5.2,4.2,4.8,9.4c-1.9-3.2-3.5-5.8-5-8.2c0,1,0.4,2.3-0.1,3.2
	c-0.8,1.7,0,2.2,1.2,3c1.4,0.9,2.7,1.9,4.7,3.3c-2.6-0.5-4.7-0.4-6-1.3c-1.2-0.9-1.6-3-2.1-4.1c-0.3,0.9-0.8,2.1-1.2,3.3l0,0
	c-1.7,1.8-1.6,3,0.6,4c1.6,0.8,3.3,1.2,5,1.8c4.3,1.6,7.7,4.3,9.5,8.6c0,0.4,0,0.8,0,1.2c0.8,2.5,1.5,5,2.3,7.5
	c0.2-0.2,0.4-0.4,0.7-0.7c-0.2-0.8-0.4-1.6-0.6-2.4c0.1-0.1,0.2-0.1,0.3-0.2c0.4,0.5,0.7,1,1.2,1.6c1.4-1.5,2.7-2.8,3.9-4.2
	c0.2-0.3,0.3-1,0.1-1.3c-1.9-3.1-3.8-6.2-5.8-9.1c-1.1-1.7-2.6-3.1-3.7-4.7c-0.6-0.8-1.3-2.1-1-2.8c0.7-1.9,1.4-4.2,2.9-5.4
	c3.2-2.6,3.3-6.2,4.2-9.6c0.2-0.8,0.5-1.5,0.9-2.7c-0.6-0.9-1.8-2.3-2.2-3.9c-0.5-2.2-0.4-4.6-0.5-7c0.2,0.1,0.7,0.4,1.6,1
	c-0.8-2.4-1.5-4.2-2.2-6.1c0.6,0.2,1.6,0.5,3,1c-0.6-1-1-1.7-1.8-3c2.6-0.3,4.8-0.3,6.7-1c3-1.1,5.2-0.5,7.9,1.1
	c1.7,1.1,4.1,1.3,6.3,1.4c4.1,0.2,8.3,0.1,12.9,0.1c-1.2,1.4-2.4,2.8-4.1,4.8c5.4-3.2,5.4-3.2,6.9-2.4c-1,0.8-1.9,1.7-3.2,2.8
	c2.5-0.5,3.3,0.6,3.6,3c4.9-5,9.8-10,14.7-15c0.1,0.1,0.1,0.1,0.2,0.2c-7.6,9.8-15.2,19.6-22.7,29.4c-1-0.4-2.1-0.9-3.1-1.3
	c-2.3,2.4-4.3,4.5-6.3,6.6c0.2,0.2,0.4,0.4,0.6,0.6c1.3-1,2.5-2,3.8-3c0.3,0.2,0.3,0.2,0.6,0.4c-0.7,1.5-2.3,3.2-2,4.5
	c0.6,2.4-0.4,3.7-1.8,5c-1.8,1.5-1.9,3.5-1.1,5.3c1.2,2.9-0.3,4.7-1.8,6.9c-0.4-2.1-0.8-3.9-1.1-5.7c-0.3,0-0.5-0.1-0.8-0.1
	c-0.2,0.7-0.7,1.7-0.5,2.2c1.9,3.9,0.1,7.3-1.5,10.7c-1.5,1.9-3.1,3.8-4.6,5.8c2.1,0.2,1,1.3,0.6,2.1c-4.1,8.9-8.1,17.8-12.2,26.7
	c-0.2,0.5-0.4,1-0.5,1.5c1.6-1.6,3.1-3.2,4-5c4.4-9,8.5-18.2,12.9-27.2c1.5-3.2,2.3-7.3,7-7.6c0.3-0.5,0.6-1,0.8-1.6
	c0.3-0.9,0.6-1.9,0.9-2.9c-0.3-0.1-0.6-0.2-0.8-0.3c-0.3,0.9-0.6,1.8-0.9,2.6c-2-3.7,0.5-5.6,2.6-7.8c1.9-1.9,3.5-4.1,5.2-6.2
	c-0.7,0.6-1.5,1.1-2.2,1.8c-1.8,1.8-3.5,3.7-5.4,5.8c-1.1-3.5,2.4-3.1,2.9-4.9c-0.5-0.2-1-0.4-2.3-0.9c1.9-1.2,3.2-2.1,4.5-2.9
	c-2.6-3.8,2.9-2.8,2.6-4.9c-0.5-0.7-1-1.6-0.7-2.1c0.8-1.4,2-2.6,3-3.9c4.7-6,9.4-11.9,14-17.9c4.5-6,8.8-12.1,13.2-18.1
	c5-6.8,10.1-13.4,15.2-20.2c-1.6,4.5-3.6,8.7-6,12.7s-5.3,7.8-7.9,11.7c2-1.6,3.6-3.5,5.2-5.3c5.5-6.1,9.7-13,12.2-20.9
	c0.7-2.3,0.6-4.4-1.2-6c-1.3-1.2-1.5-2.4-1-4.1c2.8-10.1,4-20.3,3.7-30.8c0-0.4,0-0.7-0.1-1.1c-0.5-5.3-1.2-10.6-1.6-15.9
	c-0.1-1,0.8-2.2,1.3-3.2c0.4,0.1,0.9,0.1,1.3,0.2c0.3,3,0.6,6,1,9.6c1.6-0.7,3.3-1.5,4.8-2.1c-0.2-1-0.3-1.8-0.5-2.6
	c-1.3-3.9-0.1-8.5-2.9-11.5c0.8-2.8,1.5-5.3,2.2-7.8c0.9,0.5,1.3,0.8,1.9,1.1c-0.2-1.2-0.3-1.9-0.5-2.7c0.3-0.1,0.6-0.2,0.9-0.3
	c0.8,2.5,1.7,5,2.3,6.9c0.3-0.6,1.4-1.8,1.6-3.1C150,100.6,150.1,97.2,149.9,93.9z M24.2,62.3c-1.1-3.8-1.9-7.3,1.8-9.6
	C25.4,55.7,24.8,58.9,24.2,62.3z M109.7,51c0.1,3,1.7,5.9,2.3,9.1c-0.6-0.9-1.2-1.7-1.8-2.6l0,0c-0.4-0.5-0.8-0.9-1-1.5
	c-0.2-0.4,0-1-0.5-1.4c-0.5-1.5-0.9-3-1.4-4.5c-0.4-1.1-0.7-2.3-1.2-3.3c-0.5-1.1-1.1-2.2-1.1-3.6C105.7,46.3,109.6,47.2,109.7,51z
	 M111.9,66.7c-2.8-2.8-4.3-6.1-4.1-10c0.3,0.5,0.5,0.9,0.5,0.8h1.9c0.2,1.6,0.3,3.1,0.6,4.7c0,0.3,1.2,0.3,1.2,0.5
	C112.2,64.1,112.2,65.4,111.9,66.7z M36.3,108.9c0.2-3.9,0.2-3.9-6.8-4.3c3.5-2.4,13.4-3.2,22.4-2c-1.8,1.2-4.2,2.7-6.6,4.4
	c-0.1-0.2-0.5-0.7-0.6-0.8c-1.5,0.9-2.9,1.7-4.8,2.9c0.3-1,0.4-1.3,0.6-2C39,107.7,37.7,108.3,36.3,108.9z M44.6,97.7
	c2.1,0.4,4.3,0.7,6.4,1.1v0.6c-4.4,0.3-8.8,0.6-13.1,0.9c0-0.2-0.1-0.3-0.1-0.5c2.3-0.6,4.5-1.3,6.9-2C44.7,98,44.6,97.7,44.6,97.7z
	 M54.1,115c-3.7,2-7.7,2.2-13,0.5c0.5-0.6,0.9-1.1,1.5-1.8c-1.5-1.3-1.3-2.7,0.7-4c0.3,0.7,0.5,1.3,0.8,1.9c1,2.1,1.8,4.3,5.1,2.8
	C54.2,111.5,54.2,111.5,54.1,115z M62,121.3c-0.2,0-0.3-0.1-0.5-0.1c0.4-2,0.8-4,1.2-5.9c-0.2-0.1-0.4-0.2-0.5-0.3
	c-0.5,0.6-1,1.2-1.6,1.8c-0.3-0.6-2.9-1,0-2.4c0.1,0-0.8-2.1-1.4-3.6c1.1,1,2.1,1.8,3,2.5c0.2-2,0.3-4,0.5-6c0-0.2,0.6-0.6,0.7-0.5
	c0.3,0.1,0.8,0.5,0.8,0.8c0,1.2-0.2,2.5-0.2,3.7c0,0.8,0.2,1.5,0.3,2.6C63.6,116.1,62.8,118.7,62,121.3z M116.5,91.6
	c-5.4,0.5-10.8,1.1-16.2,1.6c-1.8,0.2-3.7,0-5.5-0.1c-0.3,0-0.6-0.3-0.7-0.2c-4.8,3.8-11.1,3.3-16.3,5.9c-5.2,2.6-10.9,2.3-16.5,1.4
	c-3.1-0.5-6.2-1.2-9.3-1.8c0-0.3,0-0.6,0.1-0.9c0.5-0.2,1.1-0.3,1.4-0.5c-1.8-2.4-4.2-4-7.4-3.8c-2.3,0.1-4.6,0.7-6.8,0.5
	c-5-0.4-6.5,2.8-8,6.6c-0.4,0.9-2.1,1.3-3,1.8c0.1-1.4,0-2.5,0.4-3.4c1.1-2.5-0.3-6.1,3.2-7.7c0.5-0.2,0.4-1.5,0.7-2.3
	c1.1-3.2,2.1-6.3,2.2-9.9c0.1-3.9,1.9-7.8,3.1-11.6c0.3-1.1,1.2-2.1,1.7-3.4c1.2-2.1,2.4-4.2,4.1-7.2c1.4-0.9,3.7-2.6,6.2-4.2
	c0.9-0.5,2-0.6,3-0.9c0.6-0.2,1.1-0.4,1.7-0.6c0.8-0.3,1.6-0.8,2.4-1.1c1.5-0.5,3.5-0.5,4.4-1.5c2-2.3,4.8-3.4,7.1-2.6
	c2.7,0.9,2.2-0.9,3-2c1.4-1.9,4.3-2.1,5-1c3.7-0.3,6.7-0.5,10.2-0.8c0.1,0.1,0.8,0.7,1.6,1.4c-0.4,0.3-1,0.7-1.5,1.2
	c0.1,0.1,0.1,0.3,0.2,0.4c1.4-0.6,2.8-1.3,4.2-1.9c0.1,0.1,0.2,0.3,0.2,0.4c-0.7,0.5-1.5,1.1-2.2,1.6c3.6,2.7,7.2,5.4,10.9,8.2
	c-1.2,0.8-1.8,1.6,0,2.9c1,0.8,2.4,2,1.7,4c-0.3,0.8,0.6,2.8,2.2,1.6c0.6,2,1.3,4.1,2,6.2c0.3-0.1,0.5-0.1,0.8-0.2v-2.8
	c0.2,0,0.3,0,0.5-0.1c0.2,1.2,0.2,2.4,0.7,3.5c1,2.6,2.3,5.2,3.4,7.8c0.5,1.2,0.6,3,1.5,3.6c4.3,2.7,4.1,7.8,6,11.9
	c-0.8-0.8-1.6-1.7-2.3-2.5c-0.2,0.1-0.4,0.2-0.6,0.3C116,90.2,116.3,91,116.5,91.6z M53.2,254.7c-3.8-1.6-7.1-3.2-10.6-4.3
	c-2.2-0.7-3-1.6-2.1-3.7c2.2,0.8,4.7,1.3,6.7,2.5C49.5,250.6,51.2,252.7,53.2,254.7z M53.7,206.2c-0.6,0.1-1.2,0.3-1.9,0.4
	c0.2-1.6,0.3-3.1,0.5-4.9c1.5,2.9,2.8,5.5,4.1,8C54.3,210.2,54.1,210,53.7,206.2z"/>
<path d="M55.6,261c-2.6-2-5.3-4.1-7.8-6c-0.9,1.5-1.5,2.6-2.1,3.5c-3.6,5.1-7.2,10.3-8.5,16.5c-1.3,5.9-2.9,11.7-5.8,17.1
	c-3.5,6.7-5.7,13.8-7.6,21c0.8,0.2,1.5,0.6,2.1,1.1c2.4-8.1,5.3-16,9.6-23.3c1-1.6,2.7-2.9,4.1-4.2c0.7-0.6,1.5-1.2,2.2-1.7
	c-0.2-0.3-0.5-0.5-0.7-0.8c-2.7,2.5-5.4,5-8.3,7.7c1-2.1,2.6-3.9,3-6c1.8-10.5,6.9-19.3,13.6-27.5c2,3.4,0.4,6.3-1.5,9
	c-3.5,4.9-6.9,9.8-6.8,16.3c2.7-8.6,11.1-14.8,10.5-25.1c0.8,1.1,1.6,2.3,2.4,3.4c0-0.1-0.1-0.2-0.1-0.3c0.5,0.3,1.1,0.5,1.6,0.8
	C55.6,261.9,55.6,261.5,55.6,261z"/>
<path d="M97.3,251.7c-5.1,4.8-10.3,9.6-15.6,14.6c-0.7-1.4-1.1-2.3-1.6-3.1c-2.4,9.9-7.5,18.7-12.8,27.2
	c-6.8,11-13.1,22.2-17.1,34.4c-1.5,4.6-2.9,9.3-4.2,14c0.6-0.6,1.3-1.1,2.3-1.4c1-3.8,2-7.7,3.4-11.4c3-8.3,6.5-16.4,10.5-24.2
	c4.6-8.9,9.8-17.5,15-26c2.2-3.6,3-8.7,8.3-9.6c-6.2,10.4-12.8,20.7-18.5,31.4c-5.8,10.7-8.9,22.6-12.4,34.2
	c2.4-4.5,4.8-8.9,6.7-13.6c3.1-7.5,5.1-15.5,8.8-22.6c5.8-11.3,12.5-22.2,19.1-33.1c2.3-3.8,5.4-7.1,8.1-10.6
	C97.4,251.9,97.4,251.8,97.3,251.7z"/>
<path d="M56.7,277.9c-0.2,1.1-1,2-1.5,3c-2.8,5.7-5.8,11.2-8.1,17c-3,7.5-5.5,15.2-8,22.9c-2.4,7.5-4.6,15-6.8,22.6
	c-0.3,1.6-0.7,3.1-1.4,4.7c-0.3,1.1-0.6,2.1-0.9,3.2c-0.3,1-0.4,2.1-0.7,3.1c0.2,0.4,0.4,0.8,0.6,1.3c1.9-6.1,4.1-12.1,6.1-18.2
	c1.2-3.7,2-7.4,3.3-11.1c2.6-7.7,5.1-15.4,8-22.9c2.8-7.2,6.1-14.3,9.2-21.4c0.9-1.9,2.2-3.7,3.5-5.7C58.1,276,57.1,276,56.7,277.9z
	"/>
<path d="M111,106.9c0.1-0.5,0.3-1.2,0.6-2.6c0.8,1.1,2,1.9,1.9,2.5c-0.6,2.8,0.5,4.5,3.2,5.9c-3.2-1.6-4.8,1.7-7.5,2.3
	c1.3-3.5-1.5-4.6-2.8-6.8c-0.8,0.5-1.5,0.9-2.3,1.4c0.3-1.2,0.7-2.2,1-3.3c-0.2,0-0.5-0.1-0.7-0.1c-1,1.3-1.7,3-3,3.7
	c-1.2,0.6-3,0.1-4.6,0.2c-1.2,0.1-2.4,0.4-3.7,0.2c0.6-0.2,1.2-0.4,1.3-0.4c-0.5-1.7-1.1-3.3-1.7-5.1c-1.7,1.5-3.6,2.7-1.8,5.9
	c-2,0.3-3.8,0.5-6,0.8c0.4-1,0.6-1.6,0.9-2c0.3-0.5,0.6-0.9,0.6-1.7c-1.2,1.1-2.4,2.1-3.8,3.3c1.8,2.1,0.4,3.4-1.4,5
	c-0.2-1.6-0.3-2.8-0.4-3.9c0.3,0,0.5,0,0.8,0c-0.6-2.1-3.3-4.2-0.2-6.3c1.1-0.7,2.8-0.6,4.2-1c0.8-0.2,1.6-0.7,2.3-1.2
	c2.1-1.6,4.2-2.5,6.9-2.2c3.3,0.4,6.7,0.1,9.6,2.4C106.2,105.2,108.7,105.8,111,106.9z"/>
<path d="M39.9,287.8c-1.3,3.2-2.8,6.4-3.9,9.6c-2.3,6.8-4.4,13.6-6.7,20.4c-0.5,1.6-1.1,3.2-1.7,4.8c0.1,2.2,0.2,4.5,0.3,6.7
	c1.2-3.7,2.3-7.4,3.5-11.1c3.2-10,6.4-20,9.6-30C40.7,288.1,40.3,287.9,39.9,287.8z"/>
<path d="M68.6,177.3c-1.6-0.5-3.2-1-4.9-1.5c-0.4-0.1-0.9-0.1-1.1-0.3c-1.5-2-4.1-3.6-4.9-5.3c-1.5-3.4-5.1-3.9-6.7-6.7
	c0-0.1,0-0.2-0.1-0.3c-1.1-0.8-3.2-1.1-2.1-3c1.2-2,3.2-0.7,4.7-0.4c4.5,1,9,1.6,13.6,1c0.3,0,0.8,0.6,1.1,0.6
	c0.3,0,0.6-0.5,1.3-1.1c1.5,4.6,5.4,4.8,9.3,5.1c-6.4,2-12.3-2.7-19.4-2c1.9,2.2,3.1,4.4,4.9,5.3c1.6,0.8,3.9,0.5,6,0.4
	c4.5-0.2,9-0.5,14.1-0.8c-4.9,3-9.7,1.4-14.4,1.4c-1,0-3.6,2.8-3.6,3.8C66.7,175.5,68.6,175.6,68.6,177.3z"/>
<path d="M53.6,306.3c-2,4.2-4.5,8.3-6,12.7c-2.3,6.9-3.5,14.3-6.1,21.1c-1.6,4.1-2.8,8.2-3.8,12.3c1-1.8,2-3.6,2.9-5.5
	c0.3-1.6,0.7-3.2,1.2-4.8c2.9-9.8,6.4-19.5,9.7-29.2c0.7-2.2,1.9-4.2,2.8-6.3C54.2,306.5,53.9,306.4,53.6,306.3z"/>
<path d="M86.1,255.5c0.6-1.3,1-2.9,2-3.7c3.7-3.2,7.6-6.2,11.4-9.3c4.7-3.9,9.4-7.9,14.2-11.6c3.2-2.5,6.6-4.8,10.3-7.5
	c-1,3.3-2.8,5.2-5.2,7c-7.7,5.8-15.3,11.7-22.9,17.7c-3.1,2.4-6,5.1-9,7.6C86.5,255.6,86.3,255.5,86.1,255.5z"/>
<path d="M135.4,198.8c-1.3,4-4.1,6.6-7.3,9c-8.3,6.5-16.6,13-24.6,19.7c-3.2,2.7-5.6,6.1-8.4,9.2c-0.4-0.3-0.8-0.7-1.2-1
	c0.5-0.8,0.8-1.7,1.4-2.3c9.2-8.1,18.5-16.2,27.8-24.3C127,205.7,131.2,202.3,135.4,198.8z"/>
<path d="M88.3,246.9c1.3-2,2.5-4.1,4.1-5.8c1.5-1.5,3.6-2.4,5.3-3.8c4-3.3,7.9-6.7,11.8-10c6.1-5.1,12.2-10.1,18.4-15.1
	c0.3,0.3,0.6,0.6,0.9,0.9c-1.4,1.7-2.5,3.8-4.3,4.9c-7.2,4.5-13.5,10.1-19.6,16.1c-3.4,3.3-7.7,5.7-11.6,8.6
	C91.5,243.9,89.9,245.4,88.3,246.9C88.2,246.8,88.3,246.9,88.3,246.9z"/>
<path d="M76.9,289c2.4-4.4,4.6-8.8,7.1-13c4.9-8,9.7-16.2,15.3-23.8c3.5-4.8,8.1-8.7,12.3-12.9c0.5-0.5,1-0.8,1.5-1.2
	c0.2,0.2,0.4,0.4,0.7,0.6c-1.8,1.8-3.5,3.5-5.3,5.3c-2.3,2.4-5.2,4.4-6.9,7.2c-8,12.4-15.7,25.1-23.5,37.6c-0.1,0.2-0.4,0.4-0.5,0.7
	C77.3,289.2,77.1,289.1,76.9,289z"/>
<path d="M139.3,179.1c0.1,1.2,0.5,2.6,0.2,3.7c-1.5,6.2-4.1,11.6-9.8,15.3c-2.6,1.7-4.4,4.7-6.8,6.9c-6.2,6-12.5,11.9-19.3,17.3
	c0.7-0.8,1.4-1.7,2.2-2.5c6.9-7.1,13.8-14.3,20.8-21.4c1.7-1.7,3.3-3.6,5.1-5.1C136.5,189.6,137.2,184.4,139.3,179.1z"/>
<path d="M103.3,158.1c1.8,3.1-1.4,3.5-2.6,4.8c-1.7,1.8-3.4,3.5-5.1,5.3c-1,1-2,2.1-3,3.2c-1.2-2.6,0.9-2.7,2.8-3.3
	c-2.4-0.4-4.2-0.7-6-1.1c0.3-0.6,0.6-1.3,0.8-1.6c1.5,0.4,2.7,0.7,4.1,1.1c0.1-1.5,0.2-2.4,0.3-3.4c1.2-0.4,2.3-0.9,3.5-1.3
	c-5-0.9-9.6,0.2-14.1,2.1c-0.1-0.5-0.1-0.9-0.2-1.4C90.1,161.1,96.6,159.6,103.3,158.1z"/>
<path d="M44.4,293.8c-0.2,0-0.5,0-0.7,0c-1.4,4.7-2.7,9.4-4.2,14c-2.9,8.6-6,17.1-8.9,25.6c-0.3,1-0.7,1.9-1,2.9
	c0.6,0.2,1.1,0.5,1.5,0.9c3.2-9.8,6.3-19.6,9.5-29.4c1.2-3.7,2.6-7.3,3.8-10.9C44.7,295.9,44.4,294.8,44.4,293.8z"/>
<path d="M40.1,252.3c1.4,0.5,2.8,1,4,1.4c-3.4,6.8-8.7,12.4-13.7,18.2c1.3-2.3,2.4-4.7,4.1-6.7c2.5-3.1,4.5-6.4,6-10
	C40.8,254.5,40.3,253.3,40.1,252.3C40.2,252.3,40.1,252.3,40.1,252.3z"/>
<path d="M28.5,285.9c-2.3,6.7-5.8,13-8.4,19.8c0.2,1.3,0,2.7-0.7,3.8c0.2,0.2,0.4,0.4,0.6,0.7c3.2-8.2,6.2-16.1,9.3-24
	C29,286,28.7,286,28.5,285.9z"/>
<path d="M31.2,229.9c-0.6,1.6-1,3.3-1.7,4.9c-1,2-2.2,3.9-3.4,5.7c-0.3,0.5-1.2,0.6-1.8,0.9c-0.3-0.7-0.9-1.6-0.7-1.9
	c2.1-3.4,4.3-6.7,6.5-10C30.4,229.5,30.8,229.7,31.2,229.9z"/>
<path d="M74.3,150.5c4.6-3.5,8.6-8.5,16.2-7.2c-2.9,1.1-5.3,1.9-7.5,2.9c-1,0.4-1.7,1.5-2.6,2c-1.8,1.1-3.8,2-5.7,3.1
	C74.5,151,74.4,150.7,74.3,150.5z"/>
<path d="M19.2,46.9c-1.4,2.9-2.7,5.8-4.1,8.8c-0.5,0.1-1,0.2-2,0.3c0.8-0.7,1.3-1.2,1.8-1.6c-0.3,0-0.5-0.1-0.8-0.1
	c0.2-1.8,0.1-3.7,0.7-5.3C15.5,47.3,17.1,46.2,19.2,46.9z"/>
<path d="M48.1,193.3c0.2,0.4,0.4,0.8,0.7,1.3c-0.9,0.7-1.7,1.5-2.6,2.2c-4.3,3.3-8.7,6.6-13.1,9.9C37.7,201.9,42,196.6,48.1,193.3z"
	/>
<path d="M35.9,276.2c-3.2,7.9-6.4,15.9-9.6,23.8c-0.1,0-0.2-0.1-0.3-0.1c1.4-4.1,2.6-8.3,4.2-12.3c1.5-4,3.3-7.9,4.9-11.8
	C35.4,276,35.7,276.1,35.9,276.2z"/>
<path d="M30.5,267.2c2.4-5.3,4.7-10.5,7.2-16.1c1.2,0.6,1.8,0.9,2.4,1.2l0.1-0.1c-3.1,0.8-1.9,3.7-2.7,5.5c-0.8,0.2-1.6,0.4-2,0.5
	C34.5,261.8,32.9,264.7,30.5,267.2L30.5,267.2z"/>
<path d="M26.7,245.8c1.8-2.8,3.5-5.3,5.4-8.2c0.7,0.9,1.2,1.4,1.6,1.9c-1.7,2.6-3.3,5.1-5.1,7.8C27.9,246.8,27.3,246.3,26.7,245.8z"
	/>
<path d="M32.8,252.8c-0.8-0.7-1.4-1.2-2-1.8c1.6-2.7,3.1-5.3,4.7-8c0.8,0.9,1.3,1.4,1.5,1.7C35.6,247.4,34.3,249.8,32.8,252.8z"/>
<path d="M54.1,262c1.7,5.7-0.2,11.8-5.1,15.2C52.4,272.6,53.2,267.3,54.1,262C54.2,262,54.1,262,54.1,262z"/>
<path d="M74.3,118c0.7,0.4,1.5,0.6,1.6,0.9c0.2,1.2,2.5,2,1.1,3.7c-0.3,0.3,7.5,6.7,14.5,8.2c16.8,3.7,35.9-14.9,30.7-14.9
	c-0.8,5.4-12.5,9.1-24.2,9.9C86.4,126.6,74.8,124.4,74.3,118z"/>
<path d="M20.9,296c2.5-5.6,4.9-11.1,7.4-16.7c0.3,0.1,0.7,0.3,1,0.4c-2.5,5.6-5.1,11.2-7.6,16.8C21.4,296.3,21.1,296.1,20.9,296z"/>
<path d="M57.9,269.8c0.2-0.2,0.4-0.4,0.7-0.7c3.6-1.9,7.1-3.8,10.7-5.7c0.1,0.2,0.2,0.4,0.4,0.6c-4.7,2.9-9.4,5.7-14.1,8.6
	c-0.1-0.1-0.2-0.2-0.3-0.4C56.1,271.5,57,270.7,57.9,269.8z"/>
<path d="M84.5,230.7c3-3.4,6.1-6.9,9.1-10.3c0.2,0.2,0.4,0.4,0.6,0.5c-3,3.4-6,6.9-9,10.3C85,231,84.8,230.8,84.5,230.7z"/>
<path d="M30.5,267.2c-0.5,2.3-0.9,4.7-1.4,7c-0.5,1.9-1.1,3.7-1.7,5.6c-0.3-0.1-0.7-0.2-1-0.3C27.7,275.4,29.1,271.3,30.5,267.2
	L30.5,267.2z"/>
<path d="M30.4,277.6c1.9-2.8,3.8-5.5,5.7-8.3c0.3,0.2,0.5,0.4,0.8,0.5c-1.9,2.8-3.7,5.6-5.5,8.5C31,278.1,30.7,277.8,30.4,277.6z"/>
<path d="M72.3,266.3c-0.2,0-0.4,0-0.5,0c0-3.4,0-6.8,0-10.3c0.2,0,0.4,0,0.5,0C72.3,259.5,72.3,262.9,72.3,266.3z"/>
<path d="M80.5,244.1c-1.7,2.4-3.4,4.8-5.1,7.1l-0.7-0.4c1.8-2.5,3.5-4.8,5.2-7.2C80.1,243.7,80.3,243.9,80.5,244.1z"/>
<path class="st0" d="M76.4,42.7c3.7-0.3,6.7-0.5,10.2-0.8c0.1,0.1,0.8,0.7,1.6,1.4c-0.4,0.3-1,0.7-1.5,1.2c0.1,0.1,0.1,0.3,0.2,0.4
	c1.4-0.6,2.8-1.3,4.2-1.9c0.1,0.1,0.2,0.3,0.2,0.4c-0.7,0.5-1.5,1.1-2.2,1.6c3.6,2.7,7.2,5.4,10.9,8.2c-1.2,0.8-1.8,1.6,0,2.9
	c1,0.8,2.4,2,1.7,4c-0.3,0.8,0.6,2.8,2.2,1.6c0.6,2,1.3,4.1,2,6.2c0.3-0.1,0.5-0.1,0.8-0.2c0-0.9,0-1.8,0-2.8c0.2,0,0.3,0,0.5-0.1
	c0.2,1.2,0.2,2.4,0.7,3.5c1,2.6,2.3,5.2,3.4,7.8c0.5,1.2,0.6,3.1,1.5,3.6c4.3,2.7,4.1,7.8,6,11.9c-0.8-0.8-1.6-1.7-2.3-2.5
	c-0.2,0.1-0.4,0.2-0.6,0.3c0.2,0.8,0.5,1.6,0.7,2.3c-5.4,0.5-10.8,1.1-16.2,1.6c-1.8,0.2-3.7,0-5.5-0.1c-0.3,0-0.6-0.3-0.7-0.2
	c-4.8,3.8-11.1,3.3-16.3,5.9c-5.2,2.6-10.9,2.3-16.5,1.4c-3.1-0.5-6.2-1.2-9.3-1.8c0-0.3,0-0.6,0.1-0.9c0.5-0.2,1.1-0.3,1.4-0.5
	c-1.8-2.4-4.2-4-7.4-3.8c-2.3,0.1-4.6,0.7-6.8,0.5c-5-0.4-6.5,2.8-8,6.6c-0.4,0.9-2.1,1.3-3,1.8c0.1-1.4,0-2.5,0.4-3.4
	c1.1-2.5-0.3-6.1,3.2-7.7c0.5-0.2,0.4-1.5,0.7-2.3c1.1-3.2,2.1-6.3,2.2-9.9C35,75,36.8,71.1,38,67.3c0.3-1.1,1.2-2.1,1.7-3.4
	c1.2-2.1,2.4-4.2,4.1-7.2c1.4-0.9,3.7-2.6,6.2-4.2c0.9-0.5,2-0.6,3-0.9c0.6-0.2,1.1-0.4,1.7-0.6c0.8-0.3,1.6-0.8,2.4-1.1
	c1.5-0.5,3.5-0.5,4.4-1.5c2-2.3,4.8-3.4,7.1-2.6c2.7,0.9,2.2-0.9,3-2C72.8,41.8,75.6,41.6,76.4,42.7z"/>
<path class="st0" d="M51.9,102.6c15.2,5.9-4.2,2.7-6.6,4.4c-0.1-0.2,0.1,0.1,0,0c-1.5,0.9-3.5,0.9-5.4,2c0.3-1,0.4-1.3,0.6-2
	c-1.5,0.7-2.8,1.3-4.2,1.9c0.2-3.9,0.2-3.9-6.8-4.3C33,102.2,43,101.4,51.9,102.6z"/>
<path class="st0" d="M43.2,109.6c0.3,0.7,0.5,1.3,0.8,1.9c1,2.1,3,3.8,6.3,2.3c1.2-0.6,1.9,0.9,3.7,1.2c-3.7,2-7.7,2.2-13,0.5
	c0.5-0.6,0.9-1.1,1.5-1.8C41,112.3,41.2,110.9,43.2,109.6z"/>
<path class="st0" d="M64.4,113.7c-0.8,2.4-1.6,5-2.4,7.6c-0.2,0-0.3-0.1-0.5-0.1c0.4-2,0.8-4,1.2-5.9c-0.2-0.1-0.4-0.2-0.5-0.3
	c-0.5,0.6-1,1.2-1.6,1.8c-0.3-0.6-2.9-1,0-2.4c0.1,0-0.8-2.1-1.4-3.6c1.1,1,2.1,1.8,3,2.5c0.2-2,0.3-4,0.5-6c0-0.2,0.6-0.6,0.7-0.5
	c0.3,0.1,0.8,0.5,0.8,0.8c0,1.2-0.2,2.5-0.2,3.7C64.1,111.9,64.2,112.7,64.4,113.7z"/>
<path class="st0" d="M110.2,57.5c-0.4-0.5-0.8-0.9-1-1.5c-0.2-0.4,0-1-0.5-1.4c-0.5-1.5-0.9-3-1.4-4.5c-0.4-1.1-0.7-2.3-1.2-3.3
	c-0.5-1.1-1.1-2.2-1.1-3.6c0.6,3.1,4.5,4,4.6,7.8c0.1,3,1.7,5.9,2.3,9.1C111.4,59.2,110.8,58.3,110.2,57.5L110.2,57.5z"/>
<path class="st0" d="M40.6,246.6c2.3,0.8,4.7,1.3,6.7,2.5c2.2,1.4,3.9,3.5,6,5.5c-3.8-1.6-7.1-3.2-10.6-4.3
	C40.5,249.6,39.7,248.7,40.6,246.6C40.7,246.5,40.6,246.6,40.6,246.6z"/>
<path class="st0" d="M110.1,57.4c0.2,1.6,0.3,3.2,0.6,4.8c0,0.2,1.2,0.3,1.2,0.5c0.2,1.3,0.2,2.6,0,4c-2.8-2.8-4.3-6.1-4.1-10
	c0.3,0.5,0.5,0.9,0.5,0.8C109.2,57.5,109.7,57.5,110.1,57.4C110.2,57.5,110.1,57.4,110.1,57.4z"/>
<path class="st0" d="M44.6,97.8c0.1,0.2,0-0.1,0-0.1c2.1,0.4,4.3,0.7,6.4,1.1c0,0.2,0,0.4,0,0.6c-4.4,0.3-8.8,0.6-13.1,0.9
	c0-0.2-0.1-0.3-0.1-0.5C40,99.1,42.3,98.5,44.6,97.8z"/>
<path class="st0" d="M52.3,201.8c1.5,2.9,2.8,5.5,4.1,8c-2.2,0.5-2.4,0.3-2.8-3.6c-0.6,0.1-1.2,0.3-1.9,0.4
	C52,205,52.2,203.5,52.3,201.8z"/>
<path class="st0" d="M24.2,62.3c-1.1-3.8-1.9-7.3,1.8-9.6C25.4,55.7,24.8,58.9,24.2,62.3z"/>
</svg>
